# AST/ASF file generated using VICON BodyLanguage
# -----------------------------------------------
:version 1.10
:name VICON
:units
  mass 1.0
  length 0.45
  angle deg
:documentation
   .ast/.asf automatically generated from VICON data using
   VICON BodyBuilder and BodyLanguage model FoxedUp or BRILLIANT.MOD
:root
   order TX TY TZ RX RY RZ
   axis XYZ
   position 0 0 0  
   orientation 0 0 0 
:bonedata
  begin
     id 1 
     name lhipjoint
     direction 0.702568 -0.596508 0.388042 
     length 2.56661 
     axis 0 0 0  XYZ
  end
  begin
     id 2 
     name lfemur
     direction 0.34202 -0.939693 0  
     length 6.58374  
     axis 0 0 20  XYZ
    dof rx ry rz
    limits (-160.0 20.0)
           (-70.0 70.0)
           (-60.0 70.0)
  end
  begin
     id 3 
     name ltibia
     direction 0.34202 -0.939693 0   
     length 6.62538   
     axis 0 0 20   XYZ
    dof rx
    limits (-10.0 170.0)
  end
  begin
     id 4 
     name lfoot
     direction 0.10455 -0.287249 0.952133   
     length 2.26699   
     axis -90 7.62852e-016 20   XYZ
    dof rx rz
    limits (-45.0 90.0)
           (-70.0 20.0)
  end
  begin
     id 5 
     name ltoes
     direction 1.53572e-011 -4.22322e-011 1   
     length 1.12949   
     axis -90 7.62852e-016 20   XYZ
    dof rx
    limits (-90.0 20.0)
  end
  begin
     id 6 
     name rhipjoint
     direction -0.728055 -0.574632 0.373811   
     length 2.66432  
     axis 0 0 0  XYZ 
  end
  begin
     id 7 
     name rfemur
     direction -0.34202 -0.939693 0   
     length 6.66732   
     axis 0 0 -20   XYZ
    dof rx ry rz
    limits (-160.0 20.0)
           (-70.0 70.0)
           (-70.0 60.0)
  end
  begin
     id 8 
     name rtibia
     direction -0.34202 -0.939693 0   
     length 6.59288   
     axis 0 0 -20   XYZ
    dof rx
    limits (-10.0 170.0)
 end
 begin
     id 9 
     name rfoot
     direction -0.119193 -0.327479 0.93731   
     length 2.38061  
     axis -90 -7.62852e-016 -20   XYZ
    dof rx rz
    limits (-45.0 90.0)
           (-20.0 70.0)
  end
  begin
     id 10 
     name rtoes
     direction -1.53547e-011 -4.21827e-011 1   
     length 1.17899   
     axis -90 -7.62852e-016 -20   XYZ
    dof rx
    limits (-90.0 20.0)
  end
  begin
     id 11 
     name lowerback
     direction -0.000416114 0.999912 -0.0132284   
     length 2.12109   
     axis 0 0 0   XYZ
    dof rx ry rz
    limits (-20.0 45.0)
           (-30.0 30.0)
           (-30.0 30.0)
  end
  begin
     id 12 
     name upperback
     direction -0.00136371 0.99809 0.0617608   
     length 2.10067   
     axis 0 0 0   XYZ
    dof rx ry rz
    limits (-20.0 45.0)
           (-30.0 30.0)
           (-30.0 30.0)
  end
  begin
     id 13 
     name thorax
     direction -3.43026e-005 0.997776 0.0666515   
     length 2.10618   
     axis 0 0 0   XYZ
    dof rx ry rz
    limits (-20.0 45.0)
           (-30.0 30.0)
           (-30.0 30.0)
  end
  begin
     id 14 
     name lowerneck
     direction 0.0398646 0.998418 0.0396592   
     length 1.83817   
     axis 0 0 0   XYZ
    dof rx ry rz
    limits (-20.0 45.0)
           (-30.0 30.0)
           (-30.0 30.0)
  end
  begin
     id 15 
     name upperneck
     direction -0.0367268 0.961527 -0.272244   
     length 1.81975   
     axis 0 0 0   XYZ
    dof rx ry rz
    limits (-20.0 45.0)
           (-30.0 30.0)
           (-30.0 30.0)
  end
  begin
     id 16
     name head
     direction -0.0182665 0.99536 -0.0944669  
     length 1.86026  
     axis 0 0 0   XYZ
    dof rx ry rz
    limits (-20.0 45.0)
           (-30.0 30.0)
           (-30.0 30.0)
  end
  begin
     id 17 
     name lclavicle
     direction 0.924239 0.361045 0.124212  
     length 3.26878  
     axis 0 0 0   XYZ
    dof ry rz
    limits (-20.0 10.0)
           (0.0 20.0)
  end
  begin
     id 18 
     name lhumerus
     direction 1 -4.48968e-011 -2.56583e-027   
     length 4.58538   
     axis 180 -30 -90   XYZ
    dof rx ry rz
    limits (-60.0 90.0)
           (-90.0 90.0)
           (-90.0 90.0)
  end
  begin
     id 19
     name lradius
     direction 1 -4.4898e-011 -5.50375e-027   
     length 2.68935   
     axis 180 -30 -90   XYZ
    dof rx
    limits (-10.0 170.0)
  end
  begin
     id 20
     name lwrist
     direction 1 -4.48939e-011 -1.48955e-026   
     length 1.34468   
     axis 9.0955e-015 90 90   XYZ
    dof ry
    limits (-180.0 0.0)
 end
  begin
     id 21 
     name lhand
     direction 1 -4.48936e-011 -2.97907e-026   
     length 0.585058   
     axis 1.90115e-014 90 90   XYZ
    dof rx rz
    limits (-90.0 90.0)
           (-45.0 45.0)
  end
  begin
     id 22 
     name lfingers
     direction 1 -4.49082e-011 -5.96235e-026   
     length 0.471689   
     axis 3.80223e-014 90 90   XYZ
    dof rx
    limits (0.0 90.0)
  end
  begin
     id 23
     name lthumb
     direction 0.707107 -6.3489e-011 0.707107   
     length 0.677253   
     axis -90 45 -3.84942e-014   XYZ
    dof rx rz
    limits (-45.0 45.0)
           (-45.0 45.0)
  end
  begin
     id 24 
     name rclavicle
     direction -0.923098 0.371783 0.0983239   
     length 3.19656  
     axis 0 0 0   XYZ 
    dof ry rz
    limits (-10.0 20.0)
           (-20.0 0.0)
  end
  begin
     id 25 
     name rhumerus
     direction -1 -4.48976e-011 -2.5492e-027  
     length 4.4745   
     axis 180 30 90   XYZ
    dof rx ry rz
    limits (-90.0 60.0)
           (-90.0 90.0)
           (-90.0 90.0)
  end
  begin
     id 26 
     name rradius
     direction -1 -4.48941e-011 -4.36555e-027   
     length 2.93896   
     axis 180 30 90   XYZ
    dof rx
    limits (-10.0 170.0)
  end
  begin
     id 27 
     name rwrist
     direction -1 -4.49044e-011 -1.49032e-026   
     length 1.46948   
     axis 9.0955e-015 -90 -90   XYZ
    dof ry
    limits (-180.0 0.0)
  end
  begin
     id 28
     name rhand
     direction -1 -4.48826e-011 -2.97749e-026   
     length 0.405092   
     axis 1.90115e-014 -90 -90   XYZ
    dof rx rz
    limits (-90.0 90.0)
           (-45.0 45.0)
  end
  begin
     id 29
     name rfingers
     direction -1 -4.49209e-011 -5.96602e-026   
     length 0.326596   
     axis 3.80223e-014 -90 -90   XYZ
    dof rx
    limits (0.0 90.0)
  end
  begin
     id 30
     name rthumb
     direction -0.707107 -6.34776e-011 0.707107   
     length 0.468928   
     axis -90 -45 3.84942e-014   XYZ
    dof rx rz
    limits (-45.0 45.0)
           (-45.0 45.0)
  end
:hierarchy
  begin
    root lhipjoint rhipjoint lowerback
    lhipjoint lfemur
    lfemur ltibia
    ltibia lfoot
    lfoot ltoes
    rhipjoint rfemur
    rfemur rtibia
    rtibia rfoot
    rfoot rtoes
    lowerback upperback
    upperback thorax
    thorax lowerneck lclavicle rclavicle
    lowerneck upperneck
    upperneck head
    lclavicle lhumerus
    lhumerus lradius
    lradius lwrist
    lwrist lhand lthumb
    lhand lfingers
    rclavicle rhumerus
    rhumerus rradius
    rradius rwrist
    rwrist rhand rthumb
    rhand rfingers
  end

#!OML:ASF H:\Punching\Project 1\Capture day 1\Session 1\female.ASF
:FULLY-SPECIFIED
:DEGREES
106
root -0.775029 14.3602 -0.460909 8.88905 -7.96472 1.28289
lowerback -6.0499 -3.71191 -2.62175
upperback -8.51943 -4.87737 1.72097
thorax -5.11756 -2.25669 3.16688
lowerneck -10.4211 8.12262 14.0111
upperneck 38.6574 12.8084 -10.6238
head 17.8169 6.01634 -5.00327
rclavicle -2.88238e-015 1.59028e-014
rhumerus -0.518945 17.7569 -66.2651
rradius 135.758
rwrist -21.4714
rhand -26.9968 4.46181
rfingers 7.12502
rthumb -0.416957 -25.5175
lclavicle -2.88238e-015 1.59028e-014
lhumerus -9.65424 -31.7814 83.3075
lradius 137.573
lwrist -9.62127
lhand -31.1205 0.98912
lfingers 7.12502
lthumb -4.3995 30.9234
rfemur -47.9201 4.03292 19.3119
rtibia 61.1263
rfoot -18.2006 -13.4146
rtoes 5.58593
lfemur 4.87743 -3.21949 -18.9443
ltibia 37.8997
lfoot -29.6578 24.6196
ltoes -26.1463
107
root -0.844818 14.3929 -0.375668 8.54815 -8.41761 1.17148
lowerback -5.99511 -3.7685 -2.26884
upperback -8.52582 -4.96831 1.5857
thorax -5.18729 -2.32553 2.83374
lowerneck -9.98997 8.37104 14.3006
upperneck 38.5825 13.255 -10.8238
head 17.8113 6.23092 -5.06711
rclavicle 7.95139e-015 3.97569e-015
rhumerus -0.767072 18.4423 -66.6131
rradius 135.544
rwrist -21.3132
rhand -26.9743 4.46455
rfingers 7.12502
rthumb -0.395282 -25.5148
lclavicle 7.95139e-015 3.97569e-015
lhumerus -10.2141 -31.4121 83.1267
lradius 137.672
lwrist -9.79966
lhand -31.2328 0.908698
lfingers 7.12502
lthumb -4.5079 30.8407
rfemur -46.8468 4.47261 19.7448
rtibia 60.6215
rfoot -18.4535 -13.4045
rtoes 5.90476
lfemur 4.01269 -2.27586 -18.2893
ltibia 40.5741
lfoot -27.1912 23.9208
ltoes -24.6174
108
root -0.912719 14.4294 -0.293191 8.23123 -8.86396 1.06281
lowerback -5.94862 -3.81246 -1.88405
upperback -8.52855 -5.04314 1.43253
thorax -5.25561 -2.38902 2.46499
lowerneck -9.626 8.61533 14.5684
upperneck 38.5512 13.6857 -10.9886
head 17.8426 6.43812 -5.11405
rclavicle -2.48481e-014 -2.38542e-015
rhumerus -1.01402 19.1394 -67.0123
rradius 135.329
rwrist -21.0998
rhand -26.9597 4.51861
rfingers 7.12502
rthumb -0.381213 -25.4608
lclavicle -2.48481e-014 -2.38542e-015
lhumerus -10.7451 -31.0406 82.9281
lradius 137.787
lwrist -9.89895
lhand -31.3255 0.886857
lfingers 7.12502
lthumb -4.59742 30.817
rfemur -45.7667 4.84472 20.1739
rtibia 60.041
rfoot -18.6731 -13.3069
rtoes 6.24477
lfemur 2.82899 -1.30905 -17.6324
ltibia 43.6224
lfoot -24.136 23.3056
ltoes -22.0671
109
root -0.977764 14.4682 -0.214323 7.94335 -9.30424 0.939024
lowerback -5.90268 -3.84027 -1.44909
upperback -8.53173 -5.09741 1.27247
thorax -5.33191 -2.44549 2.06279
lowerneck -9.28097 8.8509 14.8276
upperneck 38.5189 14.105 -11.1533
head 17.8781 6.63911 -5.16114
rclavicle -1.05256e-013 -2.10712e-014
rhumerus -1.24543 19.8398 -67.4276
rradius 135.125
rwrist -20.8487
rhand -26.9417 4.5875
rfingers 7.12502
rthumb -0.363787 -25.3919
lclavicle -1.05256e-013 -2.10712e-014
lhumerus -11.2288 -30.6659 82.7103
lradius 137.928
lwrist -9.90821
lhand -31.4004 0.881257
lfingers 7.12502
lthumb -4.66973 30.8098
rfemur -44.694 5.13689 20.6175
rtibia 59.3911
rfoot -18.8456 -13.1155
rtoes 6.55844
lfemur 1.33238 -0.346656 -16.9809
ltibia 47.0212
lfoot -20.4825 22.6238
ltoes -18.4557
110
root -1.03918 14.5088 -0.139327 7.68161 -9.73862 0.785302
lowerback -5.84922 -3.84916 -0.949963
upperback -8.53071 -5.12738 1.11279
thorax -5.41613 -2.49377 1.62727
lowerneck -8.95336 9.07628 15.0732
upperneck 38.4705 14.5127 -11.3248
head 17.9085 6.83229 -5.20992
rclavicle 6.11263e-015 7.15625e-015
rhumerus -1.43636 20.5369 -67.8328
rradius 134.934
rwrist -20.576
rhand -26.9496 4.71319
rfingers 7.12502
rthumb -0.371458 -25.2662
lclavicle 6.11263e-015 7.15625e-015
lhumerus -11.6443 -30.2867 82.4696
lradius 138.097
lwrist -9.82705
lhand -31.4551 0.895514
lfingers 7.12502
lthumb -4.72259 30.8229
rfemur -43.6278 5.34801 21.0886
rtibia 58.6769
rfoot -18.9658 -12.836
rtoes 6.84435
lfemur -0.452635 0.58238 -16.3421
ltibia 50.7365
lfoot -16.4012 21.6847
ltoes -14.1448
111
root -1.0966 14.5502 -0.0684291 7.43896 -10.1606 0.588649
lowerback -5.78062 -3.83798 -0.379885
upperback -8.5181 -5.13104 0.960848
thorax -5.50421 -2.53312 1.1623
lowerneck -8.63627 9.28468 15.302
upperneck 38.3866 14.902 -11.5168
head 17.9202 7.01323 -5.26698
rclavicle -9.34288e-015 -8.34896e-015
rhumerus -1.56638 21.2106 -68.1939
rradius 134.76
rwrist -20.3096
rhand -26.9662 4.87165
rfingers 7.12502
rthumb -0.387468 -25.1077
lclavicle -9.34288e-015 -8.34896e-015
lhumerus -11.981 -29.9034 82.2185
lradius 138.284
lwrist -9.67225
lhand -31.5076 0.915556
lfingers 7.12502
lthumb -4.77328 30.8418
rfemur -42.5638 5.48126 21.5987
rtibia 57.9082
rfoot -19.0366 -12.4824
rtoes 7.1087
lfemur -2.49489 1.4569 -15.7113
ltibia 54.7313
lfoot -12.2564 20.2721
ltoes -9.72112
112
root -1.14981 14.591 -0.00171691 7.21482 -10.5761 0.348466
lowerback -5.70135 -3.80665 0.253297
upperback -8.48951 -5.10755 0.820754
thorax -5.5873 -2.56259 0.67554
lowerneck -8.33258 9.47867 15.4965
upperneck 38.2641 15.2725 -11.7117
head 17.9069 7.18106 -5.32048
rclavicle 5.61567e-015 1.98785e-016
rhumerus -1.62695 21.8538 -68.496
rradius 134.606
rwrist -20.0499
rhand -26.9844 5.03262
rfingers 7.12502
rthumb -0.40504 -24.9467
lclavicle 5.61567e-015 1.98785e-016
lhumerus -12.232 -29.5199 81.9536
lradius 138.486
lwrist -9.48019
lhand -31.5785 0.932956
lfingers 7.12502
lthumb -4.84175 30.8576
rfemur -41.5139 5.5491 22.145
rtibia 57.1017
rfoot -19.056 -12.0695
rtoes 7.34674
lfemur -4.75858 2.29807 -15.0853
ltibia 58.9612
lfoot -8.44579 18.3109
ltoes -5.88019
113
root -1.19883 14.6303 0.0608757 7.00553 -10.9906 0.0792803
lowerback -5.61021 -3.75543 0.92758
upperback -8.4469 -5.05656 0.693095
thorax -5.66536 -2.58061 0.17944
lowerneck -8.03923 9.65663 15.6501
upperneck 38.1043 15.622 -11.9078
head 17.8666 7.33439 -5.36908
rclavicle 1.19271e-014 -3.57812e-015
rhumerus -1.621 22.4652 -68.7337
rradius 134.474
rwrist -19.8056
rhand -26.9935 5.16126
rfingers 7.12502
rthumb -0.413816 -24.8181
lclavicle 1.19271e-014 -3.57812e-015
lhumerus -12.4083 -29.1227 81.6913
lradius 138.689
lwrist -9.25915
lhand -31.6603 0.87748
lfingers 7.12502
lthumb -4.92068 30.8003
rfemur -40.4886 5.56831 22.7073
rtibia 56.2765
rfoot -19.0449 -11.6083
rtoes 7.6301
lfemur -7.20643 3.1267 -14.4777
ltibia 63.3762
lfoot -5.32956 15.9083
ltoes -3.27427
114
root -1.24384 14.6677 0.119608 6.80271 -11.4125 -0.196348
lowerback -5.50677 -3.68609 1.61243
upperback -8.38559 -4.97973 0.574917
thorax -5.73013 -2.58613 -0.312981
lowerneck -7.76285 9.8194 15.7639
upperneck 37.9092 15.9493 -12.1042
head 17.8016 7.47283 -5.41265
rclavicle -1.59525e-014 4.57205e-015
rhumerus -1.54127 23.0426 -68.9061
rradius 134.356
rwrist -19.58
rhand -26.9986 5.25329
rfingers 7.12502
rthumb -0.418716 -24.726
lclavicle -1.59525e-014 4.57205e-015
lhumerus -12.517 -28.7288 81.438
lradius 138.894
lwrist -9.04811
lhand -31.775 0.868678
lfingers 7.12502
lthumb -5.03152 30.7889
rfemur -39.4901 5.55969 23.2586
rtibia 55.4483
rfoot -19.0067 -11.1204
rtoes 7.93387
lfemur -9.8026 3.97183 -13.911
ltibia 67.9187
lfoot -3.01655 13.2661
ltoes -2.05946
115
root -1.28513 14.704 0.175013 6.59488 -11.843 -0.445608
lowerback -5.38964 -3.6031 2.27217
upperback -8.3095 -4.88255 0.460556
thorax -5.78299 -2.57975 -0.788114
lowerneck -7.49762 9.97204 15.8378
upperneck 37.6915 16.2626 -12.2966
head 17.7189 7.60066 -5.44843
rclavicle 2.127e-014 1.0138e-014
rhumerus -1.40188 23.5959 -69.0255
rradius 134.247
rwrist -19.3726
rhand -27.0011 5.277
rfingers 7.12502
rthumb -0.421103 -24.7023
lclavicle 2.127e-014 1.0138e-014
lhumerus -12.5631 -28.3242 81.1949
lradius 139.092
lwrist -8.83537
lhand -31.9003 0.832062
lfingers 7.12502
lthumb -5.15246 30.7494
rfemur -38.5144 5.53127 23.7624
rtibia 54.6272
rfoot -18.9473 -10.6184
rtoes 8.22987
lfemur -12.5155 4.84917 -13.421
ltibia 72.5284
lfoot -1.46366 10.5822
ltoes -2.07022
116
root -1.3234 14.7407 0.227666 6.36443 -12.277 -0.644104
lowerback -5.2536 -3.5094 2.87755
upperback -8.21019 -4.76857 0.341225
thorax -5.81516 -2.5614 -1.23932
lowerneck -7.25912 10.1162 15.888
upperneck 37.4589 16.5621 -12.4917
head 17.6303 7.71889 -5.48221
rclavicle -1.41137e-014 -6.75868e-015
rhumerus -1.20241 24.1174 -69.1027
rradius 134.137
rwrist -19.1855
rhand -27.0178 5.28244
rfingers 7.12502
rthumb -0.437258 -24.6969
lclavicle -1.41137e-014 -6.75868e-015
lhumerus -12.5375 -27.9214 80.9602
lradius 139.277
lwrist -8.6216
lhand -32.0193 0.824686
lfingers 7.12502
lthumb -5.26741 30.7392
rfemur -37.525 5.50226 24.1917
rtibia 53.7732
rfoot -18.8446 -10.1282
rtoes 8.49884
lfemur -15.3142 5.76102 -13.0365
ltibia 77.1226
lfoot -0.509059 7.98642
ltoes -3.17671
117
root -1.35915 14.7785 0.277988 6.09701 -12.7132 -0.774185
lowerback -5.09036 -3.40987 3.4065
upperback -8.08992 -4.64384 0.214056
thorax -5.83166 -2.53264 -1.65689
lowerneck -7.03324 10.2506 15.9176
upperneck 37.2157 16.8483 -12.6922
head 17.5356 7.82862 -5.5166
rclavicle 8.64713e-015 -8.74653e-015
rhumerus -0.954843 24.6119 -69.1435
rradius 134.025
rwrist -19.0428
rhand -27.0501 5.27627
rfingers 7.12502
rthumb -0.46845 -24.703
lclavicle 8.64713e-015 -8.74653e-015
lhumerus -12.4565 -27.5255 80.7368
lradius 139.451
lwrist -8.41518
lhand -32.1361 0.860292
lfingers 7.12502
lthumb -5.38013 30.772
rfemur -36.5215 5.48063 24.5312
rtibia 52.921
rfoot -18.7234 -9.66732
rtoes 8.73897
lfemur -18.1851 6.70285 -12.7826
ltibia 81.6759
lfoot 0.00919961 5.51349
ltoes -4.88987
